<svg width="285" height="128" viewBox="0 0 285 128" fill="none" xmlns="http://www.w3.org/2000/svg">
<path d="M88.8373 34.2873H86.9112C81.953 34.2873 77.5546 37.4712 76.009 42.1811L71.7638 55.1175C71.606 55.5983 70.9256 55.6002 70.7649 55.1203L66.4415 42.2136C64.8554 37.4787 60.4188 34.2873 55.4234 34.2873H53.487C52.5585 34.2873 51.9223 35.2234 52.2646 36.0859L64.562 67.0898C65.6503 69.8334 68.3033 71.6344 71.2553 71.6344C74.2208 71.6344 76.8831 69.8167 77.9616 67.0549L90.062 36.0799C90.3987 35.2178 89.7631 34.2873 88.8373 34.2873Z" fill="#F56600"/>
<path d="M52.572 61.6283H42.8335C42.543 61.6283 42.3073 61.3927 42.3073 61.1023V42.2704C42.3073 37.8613 38.7313 34.2873 34.3203 34.2873H33.0052C32.2788 34.2873 31.6901 34.8761 31.6901 35.6018V70.3199C31.6901 71.046 32.2792 71.6344 33.0052 71.6344H57.322C58.7749 71.6344 59.9526 70.4572 59.9526 69.0053C59.9526 64.9309 56.6481 61.6283 52.572 61.6283Z" fill="#F56600"/>
<path d="M108.295 72.7035C101.228 81.8546 90.9297 87.7616 79.7048 90.0253C79.5916 90.0481 79.4785 90.0723 79.3653 90.0937C79.2056 90.1249 79.0454 90.1533 78.8856 90.1826C78.6523 90.2255 78.42 90.2692 78.1862 90.3088C78.1312 90.3181 78.0753 90.3265 78.0199 90.3358C75.855 90.6975 73.6621 90.9274 71.458 91.0215C71.4081 91.0238 71.3569 91.0252 71.3066 91.027C71.0039 91.0387 70.7003 91.0489 70.3971 91.0564C70.182 91.061 69.9664 91.0633 69.7508 91.0657C69.618 91.0671 69.4853 91.0694 69.3526 91.0699C63.0314 91.0843 56.6417 89.9718 50.558 87.6737C35.6816 83.1896 24.8456 69.3892 24.8456 53.0566C24.8456 40.2794 31.477 29.05 41.4873 22.6197C31.8234 28.624 24.2323 37.8947 20.0756 48.7979C15.8513 59.8788 15.5579 71.6976 19.2378 82.1292C25.0333 96.0329 31.9343 109.521 39.9357 122.551C43.521 128.389 51.4339 129.784 56.8005 125.524C76.3365 110.016 93.5459 92.3658 108.317 72.7203L108.295 72.7035ZM19.784 49.821C20.7452 47.1314 21.9281 44.5093 23.3251 41.9892C21.9341 44.5075 20.749 47.1296 19.784 49.821Z" fill="url(#paint0_linear_34_59)"/>
<path d="M125.761 20.3114C105.668 12.3818 85.0557 6.7675 64.0435 3.47882L64.024 3.55423C66.5904 4.45635 69.1148 5.58562 71.5266 6.9104L71.5513 6.91925C80.8389 8.6397 90.1112 10.8345 99.1111 13.4417C111.858 44.3986 102.369 67.9454 89.2343 79.6627C85.962 82.5822 82.3361 84.9376 78.457 86.6627L78.456 86.6608L78.3736 86.6999L78.375 86.7032C73.9738 88.978 69.2117 90.4155 64.2712 90.8386C64.2698 90.8386 64.2698 90.8386 64.2698 90.8386C65.8928 91.0117 67.5133 91.15 69.1404 91.15C75.3792 91.15 81.5808 90.0733 87.3567 87.9651C94.8417 85.2336 101.416 80.8208 106.46 75.1609C115.803 63.0074 124.201 50.0762 131.618 36.3973C134.884 30.3739 132.135 22.8269 125.761 20.3114ZM85.2657 85.4566C87.1616 84.223 88.9819 82.8289 90.6966 81.2998C99.0445 73.851 104.51 63.6582 106.501 51.8213C108.456 40.2045 106.827 27.2113 101.789 14.2349C106.726 15.717 111.704 17.3583 116.585 19.1146C118.807 37.764 110.003 66.7439 91.885 81.0964C89.768 82.7749 87.5476 84.2361 85.2657 85.4566ZM129.761 35.3909C122.854 48.1295 114.966 60.3988 106.317 71.855C101.825 77.5493 96.0585 82.2298 89.5715 85.4571C90.8298 84.642 92.0624 83.7576 93.249 82.8168C102.572 75.4328 110.237 63.8504 114.834 50.2051C118.347 39.7786 119.786 29.0407 118.888 19.9497C120.945 20.7089 122.996 21.4919 124.986 22.2776C127.462 23.2547 129.406 25.2544 130.319 27.762C131.232 30.271 131.029 33.0509 129.761 35.3909Z" fill="url(#paint1_linear_34_59)"/>
<path d="M99.0283 53.0576C99.0283 52.6941 99.0227 52.3068 99.012 51.839C98.9771 50.7381 98.89 49.6065 98.7541 48.4786C97.7682 37.3497 93.1309 26.561 85.6972 18.1012C79.8877 11.4904 72.556 6.46821 64.4614 3.54494C46.9414 0.776206 29.1433 -0.377277 11.1334 0.107763C4.28313 0.292096 -0.881796 6.44539 0.125949 13.2211C3.79229 37.8734 10.474 61.584 20.1011 84.183L20.1761 84.1514C13.9261 68.9485 16.58 50.585 27.1036 36.2218L27.1055 36.2227C29.6332 32.7725 32.5545 29.65 35.7882 26.9437L35.8641 26.8804C36.1603 26.6337 36.4588 26.3902 36.7605 26.1505L36.8676 26.0644C37.128 25.8591 37.3906 25.6566 37.6547 25.456C38.0379 25.1311 38.4277 24.8136 38.8245 24.505L38.817 24.4952L38.8273 24.5031C44.9529 19.7407 52.6511 16.9031 61.013 16.9031C80.9891 16.9031 97.1824 33.0886 97.1824 53.0562C97.1824 73.0234 80.9891 89.2098 61.013 89.2098C56.4395 89.2098 52.0653 88.3594 48.0376 86.8112C53.1303 89.0139 58.6534 90.4229 64.2882 90.9312C69.2938 90.5039 74.0843 89.1163 78.5265 86.8079L78.5251 86.8042C91.1741 80.2026 99.0283 67.2807 99.0283 53.0576Z" fill="url(#paint2_linear_34_59)"/>
<path d="M137.067 82.203C138.01 82.203 138.778 81.971 139.344 81.4925C139.924 81.014 140.214 80.405 140.214 79.6655C140.214 78.7955 139.764 78.1285 138.88 77.6645C138.662 77.5485 138.024 77.2875 136.98 76.896C136.516 76.7365 136.284 76.5045 136.284 76.171C136.284 75.8085 136.647 75.504 137.183 75.504C137.836 75.504 138.445 75.765 138.996 76.287L140.011 74.9675C139.286 74.2135 138.358 73.8365 137.241 73.8365C136.357 73.8365 135.631 74.054 135.095 74.5035C134.559 74.953 134.283 75.5185 134.283 76.2145C134.283 77.1425 134.733 77.824 135.646 78.259C135.82 78.346 136.154 78.491 136.661 78.6795C137.169 78.868 137.473 78.984 137.604 79.042C137.981 79.216 138.169 79.448 138.169 79.7235C138.169 80.173 137.705 80.492 137.082 80.492C136.284 80.492 135.458 80.0715 134.892 79.39L133.805 80.6805C134.602 81.6955 135.69 82.203 137.067 82.203ZM141.426 78.0415C141.426 79.216 141.818 80.202 142.615 80.9995C143.413 81.797 144.428 82.203 145.66 82.203C146.893 82.203 147.908 81.797 148.705 80.9995C149.503 80.202 149.894 79.216 149.894 78.0415C149.894 76.8815 149.503 75.8955 148.705 75.098C147.908 74.286 146.893 73.88 145.66 73.88C144.428 73.88 143.413 74.286 142.615 75.098C141.818 75.8955 141.426 76.8815 141.426 78.0415ZM144.094 79.651C143.674 79.2015 143.471 78.665 143.471 78.0415C143.471 77.418 143.674 76.8815 144.094 76.4465C144.515 76.0115 145.037 75.794 145.66 75.794C146.284 75.794 146.791 76.0115 147.212 76.4465C147.632 76.8815 147.85 77.418 147.85 78.0415C147.85 78.665 147.632 79.2015 147.212 79.651C146.791 80.086 146.284 80.3035 145.66 80.3035C145.037 80.3035 144.515 80.086 144.094 79.651ZM153.632 70.98H151.588V82H153.632V70.98ZM159.245 82.1885C161.507 82.1885 162.87 80.8835 162.87 78.665V74.0975H160.825V78.665C160.825 79.6655 160.231 80.318 159.245 80.318C158.259 80.318 157.664 79.6655 157.664 78.665V74.0975H155.62V78.665C155.62 80.8835 156.997 82.1885 159.245 82.1885ZM168.695 80.3035C168.072 80.3035 167.535 80.086 167.115 79.6655C166.694 79.2305 166.491 78.694 166.491 78.0415C166.491 77.4035 166.709 76.867 167.129 76.4465C167.55 76.0115 168.086 75.794 168.739 75.794C169.594 75.794 170.276 76.2 170.754 76.9975L172.393 76.0985C171.74 74.692 170.319 73.8945 168.71 73.8945C167.463 73.8945 166.448 74.286 165.65 75.069C164.853 75.8375 164.461 76.838 164.461 78.0415C164.461 79.0855 164.751 79.97 165.346 80.7095C165.94 81.4345 166.738 81.8985 167.724 82.087L167.303 83.131L167.419 83.5225H168.202C168.739 83.5225 169.014 83.682 169.014 84.0155C169.014 84.32 168.768 84.5665 168.26 84.5665C167.883 84.5665 167.492 84.465 167.086 84.262L166.636 85.4365C167.26 85.741 167.869 85.886 168.434 85.886C169.768 85.886 170.551 85.074 170.551 84.146C170.551 83.276 169.855 82.7395 168.985 82.696L169.217 82.145C170.609 81.971 171.769 81.2025 172.364 80.086L170.711 79.1145C170.363 79.8105 169.522 80.3035 168.695 80.3035ZM175.903 72.981C176.15 72.488 176.469 72.2415 176.831 72.2415C177.02 72.2415 177.31 72.3575 177.73 72.575C178.151 72.7925 178.513 72.894 178.818 72.894C179.673 72.894 180.384 72.285 180.775 71.2265L179.485 70.6175C179.238 71.067 178.963 71.299 178.629 71.299C178.47 71.299 178.194 71.1975 177.774 70.9945C177.368 70.777 177.005 70.6755 176.686 70.6755C175.773 70.6755 175.077 71.2265 174.598 72.343L175.903 72.981ZM173.424 78.0415C173.424 79.216 173.815 80.202 174.613 80.9995C175.41 81.797 176.425 82.203 177.658 82.203C178.89 82.203 179.905 81.797 180.703 80.9995C181.5 80.202 181.892 79.216 181.892 78.0415C181.892 76.8815 181.5 75.8955 180.703 75.098C179.905 74.286 178.89 73.88 177.658 73.88C176.425 73.88 175.41 74.286 174.613 75.098C173.815 75.8955 173.424 76.8815 173.424 78.0415ZM176.092 79.651C175.671 79.2015 175.468 78.665 175.468 78.0415C175.468 77.418 175.671 76.8815 176.092 76.4465C176.512 76.0115 177.034 75.794 177.658 75.794C178.281 75.794 178.789 76.0115 179.209 76.4465C179.63 76.8815 179.847 77.418 179.847 78.0415C179.847 78.665 179.63 79.2015 179.209 79.651C178.789 80.086 178.281 80.3035 177.658 80.3035C177.034 80.3035 176.512 80.086 176.092 79.651ZM191.256 77.8675C191.256 76.635 190.879 75.678 190.139 74.9675C189.4 74.257 188.443 73.8945 187.297 73.8945C186.079 73.8945 185.093 74.286 184.325 75.069C183.556 75.852 183.179 76.838 183.179 78.0415C183.179 79.187 183.542 80.173 184.281 80.9705C185.021 81.768 186.079 82.174 187.471 82.174C188.776 82.174 189.922 81.8115 190.922 81.0865L190.11 79.651C189.429 80.115 188.414 80.4485 187.558 80.4485C186.311 80.4485 185.543 79.883 185.253 78.7665H191.183C191.227 78.4475 191.256 78.143 191.256 77.8675ZM187.297 75.591C188.341 75.591 189.081 76.2145 189.269 77.244H185.253C185.499 76.2145 186.268 75.591 187.297 75.591ZM195.512 82.203C196.455 82.203 197.223 81.971 197.789 81.4925C198.369 81.014 198.659 80.405 198.659 79.6655C198.659 78.7955 198.209 78.1285 197.325 77.6645C197.107 77.5485 196.469 77.2875 195.425 76.896C194.961 76.7365 194.729 76.5045 194.729 76.171C194.729 75.8085 195.092 75.504 195.628 75.504C196.281 75.504 196.89 75.765 197.441 76.287L198.456 74.9675C197.731 74.2135 196.803 73.8365 195.686 73.8365C194.802 73.8365 194.077 74.054 193.54 74.5035C193.004 74.953 192.728 75.5185 192.728 76.2145C192.728 77.1425 193.178 77.824 194.091 78.259C194.265 78.346 194.599 78.491 195.106 78.6795C195.614 78.868 195.918 78.984 196.049 79.042C196.426 79.216 196.614 79.448 196.614 79.7235C196.614 80.173 196.15 80.492 195.527 80.492C194.729 80.492 193.903 80.0715 193.337 79.39L192.25 80.6805C193.047 81.6955 194.135 82.203 195.512 82.203ZM211.827 77.8675C211.827 76.635 211.45 75.678 210.711 74.9675C209.971 74.257 209.014 73.8945 207.869 73.8945C206.651 73.8945 205.665 74.286 204.896 75.069C204.128 75.852 203.751 76.838 203.751 78.0415C203.751 79.187 204.113 80.173 204.853 80.9705C205.592 81.768 206.651 82.174 208.043 82.174C209.348 82.174 210.493 81.8115 211.494 81.0865L210.682 79.651C210 80.115 208.985 80.4485 208.13 80.4485C206.883 80.4485 206.114 79.883 205.824 78.7665H211.755C211.798 78.4475 211.827 78.143 211.827 77.8675ZM207.869 75.591C208.913 75.591 209.652 76.2145 209.841 77.244H205.824C206.071 76.2145 206.839 75.591 207.869 75.591ZM223.042 73.88C221.868 73.88 220.795 74.402 220.215 75.272C219.794 74.3585 218.881 73.88 217.895 73.88C216.865 73.8655 215.937 74.402 215.488 75.2285V74.0975H213.487V82H215.531V77.679C215.531 76.5045 216.256 75.765 217.257 75.765C218.228 75.765 218.852 76.4465 218.852 77.621V82H220.896V77.6645C220.896 76.5045 221.607 75.765 222.636 75.765C223.579 75.765 224.217 76.403 224.217 77.6065V82H226.261V77.2295C226.261 76.171 225.957 75.359 225.348 74.7645C224.753 74.17 223.985 73.88 223.042 73.88ZM139.532 96.9265C139.054 97.202 138.604 97.3325 138.213 97.3325C137.473 97.3325 137.096 96.8685 137.096 95.9405V92.8085H139.706V91.0975H137.096V88.299H135.066V91.0975H133.761V92.8085H135.052V96.071C135.052 98.1155 135.994 99.1885 137.807 99.1885C138.72 99.1885 139.489 98.971 140.141 98.536L139.532 96.9265ZM148.923 94.8675C148.923 93.635 148.546 92.678 147.806 91.9675C147.067 91.257 146.11 90.8945 144.964 90.8945C143.746 90.8945 142.76 91.286 141.992 92.069C141.223 92.852 140.846 93.838 140.846 95.0415C140.846 96.187 141.209 97.173 141.948 97.9705C142.688 98.768 143.746 99.174 145.138 99.174C146.443 99.174 147.589 98.8115 148.589 98.0865L147.777 96.651C147.096 97.115 146.081 97.4485 145.225 97.4485C143.978 97.4485 143.21 96.883 142.92 95.7665H148.85C148.894 95.4475 148.923 95.143 148.923 94.8675ZM144.964 92.591C146.008 92.591 146.748 93.2145 146.936 94.244H142.92C143.166 93.2145 143.935 92.591 144.964 92.591ZM152.627 87.98H150.582V99H152.627V87.98ZM162.387 94.8675C162.387 93.635 162.01 92.678 161.27 91.9675C160.531 91.257 159.574 90.8945 158.428 90.8945C157.21 90.8945 156.224 91.286 155.456 92.069C154.687 92.852 154.31 93.838 154.31 95.0415C154.31 96.187 154.673 97.173 155.412 97.9705C156.152 98.768 157.21 99.174 158.602 99.174C159.907 99.174 161.053 98.8115 162.053 98.0865L161.241 96.651C160.56 97.115 159.545 97.4485 158.689 97.4485C157.442 97.4485 156.674 96.883 156.384 95.7665H162.314C162.358 95.4475 162.387 95.143 162.387 94.8675ZM158.428 92.591C159.472 92.591 160.212 93.2145 160.4 94.244H156.384C156.63 93.2145 157.399 92.591 158.428 92.591ZM167.817 99.174C169.441 99.174 170.847 98.362 171.529 97.086L169.876 96.1145C169.528 96.8105 168.687 97.3035 167.86 97.3035C167.237 97.3035 166.7 97.086 166.28 96.6655C165.859 96.2305 165.656 95.694 165.656 95.0415C165.656 94.4035 165.874 93.867 166.294 93.4465C166.715 93.0115 167.251 92.794 167.904 92.794C168.759 92.794 169.441 93.2 169.919 93.9975L171.558 93.0985C170.905 91.692 169.484 90.8945 167.875 90.8945C166.628 90.8945 165.613 91.286 164.815 92.069C164.018 92.8375 163.626 93.838 163.626 95.0415C163.626 96.245 164.018 97.2455 164.801 98.014C165.584 98.7825 166.584 99.174 167.817 99.174ZM172.588 95.0415C172.588 96.216 172.98 97.202 173.777 97.9995C174.575 98.797 175.59 99.203 176.822 99.203C178.055 99.203 179.07 98.797 179.867 97.9995C180.665 97.202 181.056 96.216 181.056 95.0415C181.056 93.8815 180.665 92.8955 179.867 92.098C179.07 91.286 178.055 90.88 176.822 90.88C175.59 90.88 174.575 91.286 173.777 92.098C172.98 92.8955 172.588 93.8815 172.588 95.0415ZM175.256 96.651C174.836 96.2015 174.633 95.665 174.633 95.0415C174.633 94.418 174.836 93.8815 175.256 93.4465C175.677 93.0115 176.199 92.794 176.822 92.794C177.446 92.794 177.953 93.0115 178.374 93.4465C178.794 93.8815 179.012 94.418 179.012 95.0415C179.012 95.665 178.794 96.2015 178.374 96.651C177.953 97.086 177.446 97.3035 176.822 97.3035C176.199 97.3035 175.677 97.086 175.256 96.651ZM192.305 90.88C191.131 90.88 190.058 91.402 189.478 92.272C189.057 91.3585 188.144 90.88 187.158 90.88C186.128 90.8655 185.2 91.402 184.751 92.2285V91.0975H182.75V99H184.794V94.679C184.794 93.5045 185.519 92.765 186.52 92.765C187.491 92.765 188.115 93.4465 188.115 94.621V99H190.159V94.6645C190.159 93.5045 190.87 92.765 191.899 92.765C192.842 92.765 193.48 93.403 193.48 94.6065V99H195.524V94.2295C195.524 93.171 195.22 92.359 194.611 91.7645C194.016 91.17 193.248 90.88 192.305 90.88ZM201.055 99.1885C203.317 99.1885 204.68 97.8835 204.68 95.665V91.0975H202.636V95.665C202.636 96.6655 202.041 97.318 201.055 97.318C200.069 97.318 199.475 96.6655 199.475 95.665V91.0975H197.43V95.665C197.43 97.8835 198.808 99.1885 201.055 99.1885ZM208.737 99V94.766C208.737 93.5915 209.462 92.765 210.549 92.765C211.55 92.765 212.217 93.461 212.217 94.7225V99H214.261V94.1715C214.261 93.113 213.957 92.301 213.362 91.7355C212.768 91.17 212.028 90.88 211.173 90.88C210.056 90.88 209.114 91.431 208.693 92.1995V91.0975H206.692V99H208.737ZM218.221 89.8505C218.7 89.372 218.7 88.531 218.221 88.067C217.743 87.5885 216.902 87.5885 216.423 88.067C215.945 88.531 215.945 89.372 216.423 89.8505C216.902 90.329 217.743 90.329 218.221 89.8505ZM218.337 91.0975H216.293V99H218.337V91.0975ZM224.181 99.174C225.805 99.174 227.212 98.362 227.893 97.086L226.24 96.1145C225.892 96.8105 225.051 97.3035 224.225 97.3035C223.601 97.3035 223.065 97.086 222.644 96.6655C222.224 96.2305 222.021 95.694 222.021 95.0415C222.021 94.4035 222.238 93.867 222.659 93.4465C223.079 93.0115 223.616 92.794 224.268 92.794C225.124 92.794 225.805 93.2 226.284 93.9975L227.922 93.0985C227.27 91.692 225.849 90.8945 224.239 90.8945C222.992 90.8945 221.977 91.286 221.18 92.069C220.382 92.8375 219.991 93.838 219.991 95.0415C219.991 96.245 220.382 97.2455 221.165 98.014C221.948 98.7825 222.949 99.174 224.181 99.174ZM235.391 92.04C234.695 91.2715 233.854 90.8945 232.868 90.8945C231.752 90.8945 230.809 91.286 230.07 92.069C229.33 92.8375 228.953 93.8235 228.953 95.0125C228.953 96.2015 229.316 97.202 230.055 97.9995C230.795 98.797 231.737 99.1885 232.868 99.1885C233.869 99.1885 234.71 98.826 235.391 98.0865V99H237.334V91.0975H235.391V92.04ZM235.42 95.0415C235.42 95.6795 235.203 96.216 234.782 96.6655C234.362 97.115 233.84 97.3325 233.202 97.3325C232.564 97.3325 232.042 97.115 231.621 96.6655C231.201 96.216 230.998 95.6795 230.998 95.0415C230.998 94.418 231.201 93.8815 231.607 93.432C232.027 92.9825 232.549 92.765 233.202 92.765C233.84 92.765 234.362 92.9825 234.782 93.432C235.203 93.8815 235.42 94.418 235.42 95.0415ZM243.24 97.3035C242.616 97.3035 242.08 97.086 241.659 96.6655C241.239 96.2305 241.036 95.694 241.036 95.0415C241.036 94.4035 241.253 93.867 241.674 93.4465C242.094 93.0115 242.631 92.794 243.283 92.794C244.139 92.794 244.82 93.2 245.299 93.9975L246.937 93.0985C246.285 91.692 244.864 90.8945 243.254 90.8945C242.007 90.8945 240.992 91.286 240.195 92.069C239.397 92.8375 239.006 93.838 239.006 95.0415C239.006 96.0855 239.296 96.97 239.89 97.7095C240.485 98.4345 241.282 98.8985 242.268 99.087L241.848 100.131L241.964 100.523H242.747C243.283 100.523 243.559 100.682 243.559 101.016C243.559 101.32 243.312 101.567 242.805 101.567C242.428 101.567 242.036 101.465 241.63 101.262L241.181 102.437C241.804 102.741 242.413 102.886 242.979 102.886C244.313 102.886 245.096 102.074 245.096 101.146C245.096 100.276 244.4 99.7395 243.53 99.696L243.762 99.145C245.154 98.971 246.314 98.2025 246.908 97.086L245.255 96.1145C244.907 96.8105 244.066 97.3035 243.24 97.3035ZM250.447 89.981C250.694 89.488 251.013 89.2415 251.375 89.2415C251.564 89.2415 251.854 89.3575 252.274 89.575C252.695 89.7925 253.057 89.894 253.362 89.894C254.217 89.894 254.928 89.285 255.319 88.2265L254.029 87.6175C253.782 88.067 253.507 88.299 253.173 88.299C253.014 88.299 252.738 88.1975 252.318 87.9945C251.912 87.777 251.549 87.6755 251.23 87.6755C250.317 87.6755 249.621 88.2265 249.142 89.343L250.447 89.981ZM247.968 95.0415C247.968 96.216 248.359 97.202 249.157 97.9995C249.954 98.797 250.969 99.203 252.202 99.203C253.434 99.203 254.449 98.797 255.247 97.9995C256.044 97.202 256.436 96.216 256.436 95.0415C256.436 93.8815 256.044 92.8955 255.247 92.098C254.449 91.286 253.434 90.88 252.202 90.88C250.969 90.88 249.954 91.286 249.157 92.098C248.359 92.8955 247.968 93.8815 247.968 95.0415ZM250.636 96.651C250.215 96.2015 250.012 95.665 250.012 95.0415C250.012 94.418 250.215 93.8815 250.636 93.4465C251.056 93.0115 251.578 92.794 252.202 92.794C252.825 92.794 253.333 93.0115 253.753 93.4465C254.174 93.8815 254.391 94.418 254.391 95.0415C254.391 95.665 254.174 96.2015 253.753 96.651C253.333 97.086 252.825 97.3035 252.202 97.3035C251.578 97.3035 251.056 97.086 250.636 96.651ZM265.8 94.8675C265.8 93.635 265.423 92.678 264.683 91.9675C263.944 91.257 262.987 90.8945 261.841 90.8945C260.623 90.8945 259.637 91.286 258.869 92.069C258.1 92.852 257.723 93.838 257.723 95.0415C257.723 96.187 258.086 97.173 258.825 97.9705C259.565 98.768 260.623 99.174 262.015 99.174C263.32 99.174 264.466 98.8115 265.466 98.0865L264.654 96.651C263.973 97.115 262.958 97.4485 262.102 97.4485C260.855 97.4485 260.087 96.883 259.797 95.7665H265.727C265.771 95.4475 265.8 95.143 265.8 94.8675ZM261.841 92.591C262.885 92.591 263.625 93.2145 263.813 94.244H259.797C260.043 93.2145 260.812 92.591 261.841 92.591ZM270.056 99.203C270.999 99.203 271.767 98.971 272.333 98.4925C272.913 98.014 273.203 97.405 273.203 96.6655C273.203 95.7955 272.753 95.1285 271.869 94.6645C271.651 94.5485 271.013 94.2875 269.969 93.896C269.505 93.7365 269.273 93.5045 269.273 93.171C269.273 92.8085 269.636 92.504 270.172 92.504C270.825 92.504 271.434 92.765 271.985 93.287L273 91.9675C272.275 91.2135 271.347 90.8365 270.23 90.8365C269.346 90.8365 268.621 91.054 268.084 91.5035C267.548 91.953 267.272 92.5185 267.272 93.2145C267.272 94.1425 267.722 94.824 268.635 95.259C268.809 95.346 269.143 95.491 269.65 95.6795C270.158 95.868 270.462 95.984 270.593 96.042C270.97 96.216 271.158 96.448 271.158 96.7235C271.158 97.173 270.694 97.492 270.071 97.492C269.273 97.492 268.447 97.0715 267.881 96.39L266.794 97.6805C267.591 98.6955 268.679 99.203 270.056 99.203Z" fill="#737373"/>
<path d="M139.38 63V52.488C139.38 49.572 141.18 47.52 143.88 47.52C146.364 47.52 148.02 49.248 148.02 52.38V63H153.096V51.012C153.096 48.384 152.34 46.368 150.864 44.964C149.388 43.56 147.552 42.84 145.428 42.84C142.656 42.84 140.316 44.208 139.272 46.116V43.38H134.304V63H139.38ZM176.391 52.74C176.391 49.68 175.455 47.304 173.619 45.54C171.783 43.776 169.407 42.876 166.563 42.876C163.539 42.876 161.091 43.848 159.183 45.792C157.275 47.736 156.339 50.184 156.339 53.172C156.339 56.016 157.239 58.464 159.075 60.444C160.911 62.424 163.539 63.432 166.995 63.432C170.235 63.432 173.079 62.532 175.563 60.732L173.547 57.168C171.855 58.32 169.335 59.148 167.211 59.148C164.115 59.148 162.207 57.744 161.487 54.972H176.211C176.319 54.18 176.391 53.424 176.391 52.74ZM166.563 47.088C169.155 47.088 170.991 48.636 171.459 51.192H161.487C162.099 48.636 164.007 47.088 166.563 47.088ZM192.183 57.852C190.995 58.536 189.879 58.86 188.907 58.86C187.071 58.86 186.135 57.708 186.135 55.404V47.628H192.615V43.38H186.135V36.432H181.095V43.38H177.855V47.628H181.059V55.728C181.059 60.804 183.399 63.468 187.899 63.468C190.167 63.468 192.075 62.928 193.695 61.848L192.183 57.852ZM205.122 62.964L209.478 50.688L213.906 62.964H218.334L224.958 43.38H219.63L215.814 56.232L211.242 43.38H207.678L203.25 56.232L199.326 43.38H193.998L200.694 62.964H205.122ZM225.853 53.172C225.853 56.088 226.825 58.536 228.805 60.516C230.785 62.496 233.305 63.504 236.365 63.504C239.425 63.504 241.945 62.496 243.925 60.516C245.905 58.536 246.877 56.088 246.877 53.172C246.877 50.292 245.905 47.844 243.925 45.864C241.945 43.848 239.425 42.84 236.365 42.84C233.305 42.84 230.785 43.848 228.805 45.864C226.825 47.844 225.853 50.292 225.853 53.172ZM232.477 57.168C231.433 56.052 230.929 54.72 230.929 53.172C230.929 51.624 231.433 50.292 232.477 49.212C233.521 48.132 234.817 47.592 236.365 47.592C237.913 47.592 239.173 48.132 240.217 49.212C241.261 50.292 241.801 51.624 241.801 53.172C241.801 54.72 241.261 56.052 240.217 57.168C239.173 58.248 237.913 58.788 236.365 58.788C234.817 58.788 233.521 58.248 232.477 57.168ZM255.438 63V53.676C255.438 49.608 257.346 47.736 260.226 47.736C260.946 47.736 261.738 47.88 262.566 48.132L262.998 43.272C262.206 42.984 261.414 42.84 260.622 42.84C258.21 42.84 256.41 43.884 255.222 46.008V43.38H250.362V63H255.438ZM284.54 63L275.288 51.408L284.036 43.38H277.628L270.5 50.076V35.64H265.424V63H270.5V55.8L271.832 54.612L278.312 63H284.54Z" fill="#737373"/>
<defs>
<linearGradient id="paint0_linear_34_59" x1="1.4821" y1="101.686" x2="115.879" y2="35.6113" gradientUnits="userSpaceOnUse">
<stop stop-color="#FF6600"/>
<stop offset="1" stop-color="#F56600" stop-opacity="0"/>
</linearGradient>
<linearGradient id="paint1_linear_34_59" x1="138.636" y1="35.0473" x2="56.7137" y2="49.4981" gradientUnits="userSpaceOnUse">
<stop stop-color="#F56600"/>
<stop offset="1" stop-color="#F56600" stop-opacity="0"/>
</linearGradient>
<linearGradient id="paint2_linear_34_59" x1="97.5895" y1="-1.7877" x2="-5.31666" y2="84.597" gradientUnits="userSpaceOnUse">
<stop stop-color="#F56600"/>
<stop offset="1" stop-color="#F56600" stop-opacity="0"/>
</linearGradient>
</defs>
</svg>
